<svg xmlns="http://www.w3.org/2000/svg" viewBox="0 0 174.8 8.1"><g fill="#9D9D9C"><path d="M0 .2h4.9V1h-4v2.9h3.5v.8H.9V8H0V.2zM7.7 7.2h1.9V.9H7.7V.2h4.7V1h-1.9v6.3h1.9V8H7.7v-.8zM18.3 4.8L20.9 8h-1.1l-2.4-3.1h-1.1V8h-.9V.2h1.8c2 0 3.2.8 3.2 2.3 0 1.3-.9 2-2.1 2.3zm-2-.7h.9c1.7 0 2.3-.7 2.3-1.6 0-.9-.6-1.6-2.3-1.6h-.9v3.2zM22.6 5.8h.9c.1 1 .7 1.5 1.9 1.5 1.1 0 1.9-.5 1.9-1.4 0-.6-.4-1-1.2-1.3L24.4 4c-1-.4-1.7-1-1.7-2 0-1.4 1.1-2.1 2.6-2.1 1.6.1 2.7.8 2.7 2.4h-.9c0-1.3-1-1.5-1.7-1.5-1.1 0-1.7.5-1.7 1.2 0 .6.4 1 1.1 1.2l1.7.6c1.2.4 1.8 1 1.8 2C28.3 7.4 27 8 25.5 8c-1.7.1-2.9-.7-2.9-2.2zM32.7.9H30V.2h6.2V1h-2.7v7h-.9V.9zM46.2.2h2.1c2 0 3.2.8 3.2 2.4 0 1.6-1.2 2.4-3.2 2.4h-1.2v3h-.9V.2zm.9 3.9h1.2c1.7 0 2.3-.7 2.3-1.6 0-.9-.6-1.6-2.3-1.6h-1.2v3.2zM56.8 4.8L59.4 8h-1.1l-2.4-3.1h-1.1V8h-.9V.2h1.8c2 0 3.2.8 3.2 2.3 0 1.3-.9 2-2.1 2.3zm-2-.7h.9c1.7 0 2.3-.7 2.3-1.6 0-.9-.6-1.6-2.3-1.6h-.9v3.2zM61 4.1C61 1.6 62 0 64 0s2.9 1.7 2.9 4c0 2.5-1 4.1-3 4.1S61 6.5 61 4.1zm5 0c0-1.6-.4-3.3-2-3.3s-2 1.6-2 3.3c0 1.6.4 3.3 2 3.3 1.6-.1 2-1.7 2-3.3zM71.2.9h-2.7V.2h6.2V1H72v7h-.9V.9zM76.4 4.1c0-2.5 1-4.1 3-4.1s2.9 1.7 2.9 4c0 2.5-1 4.1-3 4.1s-2.9-1.6-2.9-4zm5 0c0-1.6-.4-3.3-2-3.3s-2 1.6-2 3.3c0 1.6.4 3.3 2 3.3 1.6-.1 2-1.7 2-3.3zM86.6.9h-2.7V.2h6.2V1h-2.7v7h-.9V.9zM94.3 4.8L91.2.1h1L93.5 2l1.3 2 1.3-2L97.3.1h1l-3.1 4.7V8h-.9V4.8zM100.1.2h2.1c2 0 3.2.8 3.2 2.4 0 1.6-1.2 2.4-3.2 2.4H101v3h-.9V.2zm.9 3.9h1.2c1.7 0 2.3-.7 2.3-1.6 0-.9-.6-1.6-2.3-1.6H101v3.2zM107.8.2h4.8V1h-3.9v2.7h3.5v.8h-3.5v2.8h3.9V8h-4.8V.2zM122.6 4.1c0-2.5 1-4.1 3-4.1s2.9 1.7 2.9 4c0 2.5-1 4.1-3 4.1s-2.9-1.6-2.9-4zm5 0c0-1.6-.4-3.3-2-3.3s-2 1.6-2 3.3c0 1.6.4 3.3 2 3.3 1.6-.1 2-1.7 2-3.3zM130.9.2h4.9V1h-4v2.9h3.5v.8h-3.5V8h-.9V.2zM146.3.2h.9v3.4h2.9V.2h.9V8h-.9V4.4h-2.9V8h-.9V.2zM154 .2h2.1c2.5 0 3.2 1.8 3.2 3.9 0 2.2-.7 3.9-3.2 3.9H154V.2zm.9 7h1.2c2.1 0 2.3-1.8 2.3-3.1 0-1.4-.2-3.1-2.3-3.1h-1.2v6.2zM163.5.2h1l2.8 7.8h-1l-.7-2h-3.3l-.6 2h-1l2.8-7.8zm-.9 5.1h2.8L164 1.2l-1.4 4.1zM171.3.9h-2.7V.2h6.2V1h-2.7v7h-.9V.9z"/></g></svg>