<?xml version="1.0" encoding="utf-8"?>
<!-- Generator: Adobe Illustrator 18.0.0, SVG Export Plug-In . SVG Version: 6.00 Build 0)  -->
<!DOCTYPE svg PUBLIC "-//W3C//DTD SVG 1.1//EN" "http://www.w3.org/Graphics/SVG/1.1/DTD/svg11.dtd">
<svg version="1.1" id="Layer_1" xmlns="http://www.w3.org/2000/svg" xmlns:xlink="http://www.w3.org/1999/xlink" x="0px" y="0px"
	 viewBox="0 0 334.9 188.5" enable-background="new 0 0 334.9 188.5" xml:space="preserve">
<g>
	<path fill="#3C3C3B" d="M6.8,6.6H2.1C1.9,6.3,1.9,6,1.9,5.9c0-1.5,2.7-2,8.1-2h7.9C18,4,18.1,4.3,18.1,4.5c0,1.2-1.8,1.8-5.4,2
		v13.2c3.5-0.1,6.1-0.2,8.7-0.2c2.7,0,5.2,0.1,8.8,0.2V6.6h-4.7c-0.1-0.2-0.2-0.5-0.2-0.7c0-1.5,2.7-2,8.2-2h7.9
		c0.1,0.2,0.2,0.5,0.2,0.6c0,1.2-1.8,1.8-5.4,2V36h4.7c0.1,0.2,0.2,0.5,0.2,0.7c0,1.5-2.7,2-8.2,2h-7.9c-0.1-0.2-0.2-0.5-0.2-0.6
		c0-1.2,1.8-1.8,5.4-2V22.3c-3.6,0.1-6.1,0.2-8.8,0.2c-2.6,0-5.2-0.1-8.7-0.2V36h4.8c0.1,0.2,0.2,0.5,0.2,0.7c0,1.5-2.7,2-8.1,2H1.7
		c-0.2-0.2-0.2-0.5-0.2-0.6c0-1.2,1.8-1.8,5.3-2V6.6z"/>
	<path fill="#3C3C3B" d="M49.8,16.6c-0.6-0.1-1.1-0.1-1.6-0.1c-1,0-1.8,0.1-2.6,0.2c-0.1-0.2-0.2-0.5-0.2-0.8c0-1.4,2.3-2.3,6.6-2.3
		c2.5,0,3,1.1,3,2.5v20.1h4.5c0.1,0.2,0.2,0.4,0.2,0.6c0,1.3-2.4,1.7-7.2,1.7h-7c-0.1-0.2-0.2-0.4-0.2-0.6c0-1,1.5-1.5,4.6-1.7V16.6
		z M49.4,5.1c0-1.9,1.4-3.2,3.1-3.2c1.8,0,3,1.3,3,3.2c0,1.6-1.3,3-3.1,3C50.6,8.1,49.4,6.7,49.4,5.1z"/>
	<path fill="#3C3C3B" d="M67.3,32.9c0,2.8,2.1,4.5,5.2,4.5c3.9,0,6-2.2,6-4.5c0-3.3-3-4.2-6.3-5c-4-1-8.5-1.9-8.5-7.6
		c0-3.8,3.4-7.5,9.9-7.5c6.1,0,8.8,2.1,8.8,4.7c0,1.9-1.4,3.3-3.2,3.3c-0.3,0-0.7-0.1-1.1-0.2c0.1-0.6,0.2-1.2,0.2-1.8
		c0-2.4-1.4-4-4.8-4c-2.9,0-5.2,1.5-5.2,4c0,3.5,3.3,4.2,6.8,5c3.9,0.9,8,1.9,8,7.2c0,4.6-4.2,8.4-10.7,8.4
		c-5.9-0.1-9.2-2.2-9.2-5.4c0-2.2,1.5-3.5,3.4-3.5c0.4,0,0.7,0.1,1.1,0.2C67.4,31.5,67.3,32.2,67.3,32.9z"/>
	<path fill="#3C3C3B" d="M90.3,16.6h-3.9c-0.1-0.1-0.2-0.4-0.2-0.6c0-2.3,4.5-1.1,7.6-7.5h1.7l-0.1,5.7c3.2,0,6-0.1,8.8-0.5
		c0.1,0.3,0.2,0.7,0.2,1c0,1.6-1.7,1.8-3.9,1.8h-5.2L95.4,32c-0.1,3.1,1.1,4.7,3.4,4.7c2.7,0,4-2.2,4.5-4.5c1,0,1.1,0.5,1.1,1.1
		c0,2.6-2.5,6.2-7.4,6.2c-5,0-7-2.9-6.9-7.1L90.3,16.6z"/>
	<path fill="#3C3C3B" d="M107.3,26.2c0-7.4,5.5-13.3,13.2-13.3s12.1,5.9,12.1,13.3c0,7.3-5.5,13.3-13.2,13.3
		C111.8,39.5,107.3,33.5,107.3,26.2z M127.1,26.2c0-6.5-2.6-11.1-7.1-11.1c-5,0-7.1,4.6-7.1,11.1c0,6.4,2.5,11.1,7,11.1
		C124.8,37.3,127.1,32.6,127.1,26.2z"/>
	<path fill="#3C3C3B" d="M140.9,23.7c0-2.6-0.3-5.3-0.7-7c-0.5-0.1-1-0.1-1.4-0.1c-1,0-1.8,0.1-2.6,0.2c-0.1-0.2-0.2-0.5-0.2-0.8
		c0-1.4,1.8-2.3,4.8-2.3c3.3,0,4.2,0.7,4.3,5.4c1-3.6,3.2-6.3,7.3-6.3c3.2,0,5.2,1.9,5.2,4.6c0,2.9-1.9,4.8-3.8,4.8
		c-0.7,0-1.1-0.1-1.4-0.3c0.4-0.9,0.7-1.7,0.7-3c0-2-1-3.4-2.5-3.4c-3.4,0-4.5,5.1-4.5,10.3v10.5h6c0.2,0.2,0.2,0.4,0.2,0.6
		c0,1.3-2.7,1.7-8,1.7h-7.8c-0.1-0.2-0.2-0.4-0.2-0.6c0-0.9,1.5-1.4,4.5-1.6V23.7z"/>
	<path fill="#3C3C3B" d="M164.4,16.6c-0.6-0.1-1.1-0.1-1.6-0.1c-1,0-1.8,0.1-2.6,0.2c-0.1-0.2-0.2-0.5-0.2-0.8
		c0-1.4,2.3-2.3,6.6-2.3c2.5,0,3,1.1,3,2.5v20.1h4.5c0.1,0.2,0.2,0.4,0.2,0.6c0,1.3-2.4,1.7-7.2,1.7h-7c-0.1-0.2-0.2-0.4-0.2-0.6
		c0-1,1.5-1.5,4.6-1.7V16.6z M164,5.1c0-1.9,1.4-3.2,3.1-3.2c1.8,0,3,1.3,3,3.2c0,1.6-1.3,3-3.1,3C165.1,8.1,164,6.7,164,5.1z"/>
	<path fill="#3C3C3B" d="M199.2,33.7c0,1.8-3.2,5.8-9.7,5.8c-8,0-12-5.8-12-13c0-7.6,4.5-13.6,12.3-13.6c6.7,0,9.6,3,9.6,6.6
		c0,2.5-1.6,4.2-3.9,4.2c-0.8,0-1.5-0.2-1.8-0.6c0.4-1.1,0.5-2.2,0.5-3.5c0-2.3-1.2-4.5-4.3-4.5c-4.4,0-6.7,4-6.7,11.1
		c0,6,2.5,10.5,7.6,10.5c3.6,0,6-2,7-4.3C198.8,32.4,199.2,32.9,199.2,33.7z"/>
	<path fill="#3C3C3B" d="M219.3,21.1c0-2.8-0.6-6-4.7-6c-2.9,0-4.7,1.8-4.7,4.9c0,1,0.1,1.9,0.6,3.1c-0.5,0.2-0.9,0.3-1.6,0.3
		c-2,0-3.8-1.4-3.8-3.9c0-3.7,3.5-6.6,9.9-6.6c6.7,0,9.3,3.6,9.3,8.8v12.4c0,1.9,0.8,2.7,1.9,2.7c1.4,0,2.3-0.9,3-2.5
		c0.7,0,1,0.7,1,1.1c0,1.7-2,4-5.5,4c-2.7,0-4.7-1.5-5.1-4.6c-1.5,3.1-4.8,4.6-8.1,4.6c-4,0-7.4-2.1-7.4-6.2c0-4.2,3.8-7,10.8-7
		c1.3,0,2.7,0.1,4.2,0.3V21.1z M219.3,28.7c-1.1-0.1-2.1-0.2-3.1-0.2c-4,0-6.7,1.3-6.7,4.4c0,2.5,1.8,3.9,4,3.9c3.1,0,5.8-2.1,5.8-6
		V28.7z"/>
	<path fill="#3C3C3B" d="M235.7,3.1C234.8,3.1,234,3,233.3,3c-1.1,0-2,0.1-2.8,0.2c-0.1-0.2-0.2-0.5-0.2-0.9c0-1.4,2.6-2.4,7.3-2.4
		c2.7,0,3.3,1.1,3.3,2.6v33.7h4.5c0.1,0.2,0.2,0.4,0.2,0.6c0,1.3-2.4,1.7-7.2,1.7h-7c-0.1-0.2-0.2-0.4-0.2-0.6c0-1,1.5-1.5,4.6-1.7
		V3.1z"/>
	<path fill="#3C3C3B" d="M6.8,75H1.7c-0.1-0.2-0.2-0.5-0.2-0.7c0-1.5,2.7-2,8.2-2h8.7C29.7,72.2,36,78.7,36,88.9
		c0,10.4-6.6,18.1-18.5,18.1H2c-0.1-0.2-0.2-0.5-0.2-0.7c0-1.1,1.6-1.7,5-1.9V75z M17.2,104.4c8,0,12.4-5.6,12.4-15.2
		c0-9.5-4.3-14.2-12.3-14.2h-4.6v29.4H17.2z"/>
	<path fill="#3C3C3B" d="M42.9,85C42.3,85,41.8,85,41.3,85c-1,0-1.8,0.1-2.6,0.2c-0.1-0.2-0.2-0.5-0.2-0.8c0-1.4,2.3-2.3,6.6-2.3
		c2.5,0,3,1.1,3,2.5v14.1c0,3.6,1.5,6.1,5.1,6.1c3.6,0,6.8-3.5,6.8-7.9V85C59.5,85,58.9,85,58.4,85c-1,0-1.8,0.1-2.6,0.2
		c-0.1-0.2-0.2-0.5-0.2-0.8c0-1.4,2.3-2.3,6.6-2.3c2.5,0,3,1.1,3,2.5v18.1c0,1.5,0.7,2.5,2.1,2.5c1.3,0,2.2-0.9,2.8-2.5
		c0.7,0,1,0.7,1,1.1c0,1.7-2,4-5.5,4c-3.4,0-5.1-2.2-5.1-5.2c0-0.2,0-0.5,0.1-0.9c-1.5,3.5-4.6,6.1-9.1,6.1c-6,0-8.6-3.5-8.6-8.9V85
		z"/>
	<path fill="#3C3C3B" d="M75.9,85H72c-0.1-0.1-0.2-0.4-0.2-0.6c0-2.3,4.5-1.1,7.6-7.5h1.7l-0.1,5.7c3.2,0,6-0.1,8.8-0.5
		c0.1,0.3,0.2,0.7,0.2,1c0,1.6-1.7,1.8-3.9,1.8h-5.2l-0.2,15.4c-0.1,3.1,1.1,4.7,3.4,4.7c2.7,0,4-2.2,4.5-4.5c1,0,1.1,0.5,1.1,1.1
		c0,2.6-2.5,6.2-7.4,6.2c-5,0-7-2.9-6.9-7.1L75.9,85z"/>
	<path fill="#3C3C3B" d="M114.8,102.1c0,1.8-3.2,5.8-9.7,5.8c-8,0-12-5.8-12-13c0-7.6,4.5-13.6,12.3-13.6c6.7,0,9.6,3,9.6,6.6
		c0,2.5-1.6,4.2-3.9,4.2c-0.8,0-1.5-0.2-1.8-0.6c0.4-1.1,0.5-2.2,0.5-3.5c0-2.3-1.2-4.5-4.3-4.5c-4.4,0-6.7,4-6.7,11.1
		c0,6,2.5,10.5,7.6,10.5c3.6,0,6-2,7-4.3C114.3,100.8,114.8,101.3,114.8,102.1z"/>
	<path fill="#3C3C3B" d="M122.9,71.5c-0.9-0.1-1.7-0.1-2.4-0.1c-1.1,0-2,0.1-2.9,0.2c-0.1-0.2-0.2-0.5-0.2-0.9
		c0-1.4,2.6-2.4,7.3-2.4c2.7,0,3.3,1.1,3.3,2.6v15.5c1.7-3,4.9-5.2,8.9-5.2c6.2,0,8.9,3.6,8.9,9.9v13.6h4.5c0.1,0.2,0.2,0.4,0.2,0.6
		c0,1.3-2.4,1.7-7.2,1.7h-7c-0.1-0.2-0.2-0.4-0.2-0.6c0-1,1.5-1.5,4.6-1.7V91.7c0-4.9-1.6-7.5-5.6-7.5c-3.6,0-7,3.5-7,7.9v12.6h4.4
		c0.1,0.2,0.2,0.4,0.2,0.6c0,1.3-2.4,1.7-7.2,1.7h-7c-0.1-0.2-0.2-0.4-0.2-0.6c0-1,1.5-1.5,4.7-1.7V71.5z"/>
	<path fill="#3C3C3B" d="M166,91.9c0.1,0.2,0.2,0.6,0.2,0.8c0,1.3-1.7,1.9-4.4,1.9h-8.6c-0.1-0.2-0.2-0.6-0.2-0.8
		c0-1.3,1.7-1.9,4.4-1.9H166z"/>
	<path fill="#3C3C3B" d="M167.9,107.1c-0.1-0.2-0.1-0.5-0.1-0.6c0-1.1,1.2-1.7,3.6-1.9c3.7-11.2,8.4-22.2,13.6-33.1h2.2
		c5,10.9,9.5,21.9,13.6,33h3.8c0.1,0.2,0.2,0.5,0.2,0.7c0,1.5-2.6,2-7.9,2h-7.8c-0.1-0.2-0.2-0.5-0.2-0.6c0-1.2,1.7-1.8,5.2-2
		c-1.1-3.4-2.3-6.8-3.6-10.2c-2.5,0.1-4.2,0.1-6,0.1c-1.9,0-3.8-0.1-6.6-0.2c-1.3,3.4-2.5,6.8-3.7,10.2h6.4c0.1,0.2,0.2,0.5,0.2,0.7
		c0,1.5-2.2,2-6.6,2H167.9z M184.4,78.7c-1.9,4.3-3.8,8.7-5.5,13.1c2.3-0.1,4-0.1,5.7-0.1c1.6,0,3.1,0.1,5.1,0.1
		C188,87.4,186.3,83.1,184.4,78.7z"/>
	<path fill="#3C3C3B" d="M210.3,101.3c0,2.8,2.1,4.5,5.2,4.5c3.9,0,6-2.2,6-4.5c0-3.3-3-4.2-6.3-5c-4-1-8.5-1.9-8.5-7.6
		c0-3.8,3.4-7.5,9.9-7.5c6.1,0,8.8,2.1,8.8,4.7c0,1.9-1.4,3.3-3.2,3.3c-0.3,0-0.7-0.1-1.1-0.2c0.1-0.6,0.2-1.2,0.2-1.8
		c0-2.4-1.4-4-4.8-4c-2.9,0-5.2,1.5-5.2,4c0,3.5,3.3,4.2,6.8,5c3.9,0.9,8,1.9,8,7.2c0,4.6-4.2,8.4-10.7,8.4
		c-5.9-0.1-9.2-2.2-9.2-5.4c0-2.2,1.5-3.5,3.4-3.5c0.4,0,0.7,0.1,1.1,0.2C210.4,99.9,210.3,100.6,210.3,101.3z"/>
	<path fill="#3C3C3B" d="M234.7,85c-0.6-0.1-1.1-0.1-1.6-0.1c-1,0-1.8,0.1-2.6,0.2c-0.1-0.2-0.2-0.5-0.2-0.8c0-1.4,2.3-2.3,6.6-2.3
		c2.5,0,3,1.1,3,2.5v20.1h4.5c0.1,0.2,0.2,0.4,0.2,0.6c0,1.3-2.4,1.7-7.2,1.7h-7c-0.1-0.2-0.2-0.4-0.2-0.6c0-1,1.5-1.5,4.6-1.7V85z
		 M234.3,73.5c0-1.9,1.4-3.2,3.1-3.2c1.8,0,3,1.3,3,3.2c0,1.6-1.3,3-3.1,3C235.4,76.5,234.3,75.1,234.3,73.5z"/>
	<path fill="#3C3C3B" d="M263.1,89.5c0-2.8-0.6-6-4.7-6c-2.9,0-4.7,1.8-4.7,4.9c0,1,0.1,1.9,0.6,3.1c-0.5,0.2-0.9,0.3-1.6,0.3
		c-2,0-3.8-1.4-3.8-3.9c0-3.7,3.5-6.6,9.9-6.6c6.7,0,9.3,3.6,9.3,8.8v12.4c0,1.9,0.8,2.7,1.9,2.7c1.4,0,2.3-0.9,3-2.5
		c0.7,0,1,0.7,1,1.1c0,1.7-2,4-5.5,4c-2.7,0-4.7-1.5-5.1-4.6c-1.5,3.1-4.8,4.6-8.1,4.6c-4,0-7.4-2.1-7.4-6.2c0-4.2,3.8-7,10.8-7
		c1.3,0,2.7,0.1,4.2,0.3V89.5z M263.1,97.1c-1.1-0.1-2.1-0.2-3.1-0.2c-4,0-6.7,1.3-6.7,4.4c0,2.5,1.8,3.9,4,3.9c3.1,0,5.8-2.1,5.8-6
		V97.1z"/>
	<path fill="#3C3C3B" d="M278.7,85h-3.9c-0.1-0.1-0.2-0.4-0.2-0.6c0-2.3,4.5-1.1,7.6-7.5h1.7l-0.1,5.7c3.2,0,6-0.1,8.8-0.5
		c0.1,0.3,0.2,0.7,0.2,1c0,1.6-1.7,1.8-3.9,1.8h-5.2l-0.2,15.4c-0.1,3.1,1.1,4.7,3.4,4.7c2.7,0,4-2.2,4.5-4.5c1,0,1.1,0.5,1.1,1.1
		c0,2.6-2.5,6.2-7.4,6.2c-5,0-7-2.9-6.9-7.1L278.7,85z"/>
	<path fill="#3C3C3B" d="M299.9,85c-0.6-0.1-1.1-0.1-1.6-0.1c-1,0-1.8,0.1-2.6,0.2c-0.1-0.2-0.2-0.5-0.2-0.8c0-1.4,2.3-2.3,6.6-2.3
		c2.5,0,3,1.1,3,2.5v20.1h4.5c0.1,0.2,0.2,0.4,0.2,0.6c0,1.3-2.4,1.7-7.2,1.7h-7c-0.1-0.2-0.2-0.4-0.2-0.6c0-1,1.5-1.5,4.6-1.7V85z
		 M299.5,73.5c0-1.9,1.4-3.2,3.1-3.2c1.8,0,3,1.3,3,3.2c0,1.6-1.3,3-3.1,3C300.6,76.5,299.5,75.1,299.5,73.5z"/>
	<path fill="#3C3C3B" d="M334.7,102.1c0,1.8-3.2,5.8-9.7,5.8c-8,0-12-5.8-12-13c0-7.6,4.5-13.6,12.3-13.6c6.7,0,9.6,3,9.6,6.6
		c0,2.5-1.6,4.2-3.9,4.2c-0.8,0-1.5-0.2-1.8-0.6c0.4-1.1,0.5-2.2,0.5-3.5c0-2.3-1.2-4.5-4.3-4.5c-4.4,0-6.7,4-6.7,11.1
		c0,6,2.5,10.5,7.6,10.5c3.6,0,6-2,7-4.3C334.2,100.8,334.7,101.3,334.7,102.1z"/>
	<path fill="#3C3C3B" d="M12.6,143.4H4.2c-0.3,3.6-1.6,7.4-3.4,7.4c-0.4,0-0.6-0.1-0.8-0.2c0.1-1.6,0.3-3.6,0.3-6.2v-3.7h30.9
		c0.1,0.9,0.1,1.8,0.1,2.7c0,3.9-0.9,7.5-3,7.5c-0.2,0-0.6-0.1-0.7-0.1c0-1,0.1-2.1,0.1-3.1c0-1.6-0.1-2.9-0.7-4.3h-8.6v29.4h5.3
		c0.1,0.2,0.2,0.5,0.2,0.7c0,1.5-2.7,2-8.1,2h-9c-0.2-0.2-0.2-0.5-0.2-0.6c0-1.3,2-1.9,6-2V143.4z"/>
	<path fill="#3C3C3B" d="M36.5,160.5c0-2.6-0.3-5.3-0.7-7c-0.5-0.1-1-0.1-1.4-0.1c-1,0-1.8,0.1-2.6,0.2c-0.1-0.2-0.2-0.5-0.2-0.8
		c0-1.4,1.8-2.3,4.8-2.3c3.3,0,4.2,0.7,4.3,5.4c1-3.6,3.2-6.3,7.3-6.3c3.2,0,5.2,1.9,5.2,4.6c0,2.9-1.9,4.8-3.8,4.8
		c-0.7,0-1.1-0.1-1.4-0.3c0.4-0.9,0.7-1.7,0.7-3c0-2-1-3.4-2.5-3.4c-3.4,0-4.5,5.1-4.5,10.3v10.5h6c0.2,0.2,0.2,0.4,0.2,0.6
		c0,1.3-2.7,1.7-8,1.7h-7.8c-0.1-0.2-0.2-0.4-0.2-0.6c0-0.9,1.5-1.4,4.5-1.6V160.5z"/>
	<path fill="#3C3C3B" d="M71.4,157.9c0-2.8-0.6-6-4.7-6c-2.9,0-4.7,1.8-4.7,4.9c0,1,0.1,1.9,0.6,3.1c-0.5,0.2-0.9,0.3-1.6,0.3
		c-2,0-3.8-1.4-3.8-3.9c0-3.7,3.5-6.6,9.9-6.6c6.7,0,9.3,3.6,9.3,8.8v12.4c0,1.9,0.8,2.7,1.9,2.7c1.4,0,2.3-0.9,3-2.5
		c0.7,0,1,0.7,1,1.1c0,1.7-2,4-5.5,4c-2.7,0-4.7-1.5-5.1-4.6c-1.5,3.1-4.8,4.6-8.1,4.6c-4,0-7.4-2.1-7.4-6.2c0-4.2,3.8-7,10.8-7
		c1.3,0,2.7,0.1,4.2,0.3V157.9z M71.4,165.5c-1.1-0.1-2.1-0.2-3.1-0.2c-4,0-6.7,1.3-6.7,4.4c0,2.5,1.8,3.9,4,3.9
		c3.1,0,5.8-2.1,5.8-6V165.5z"/>
	<path fill="#3C3C3B" d="M103.9,170.7c-1.7,3.5-5,5.6-8.7,5.6c-7.8,0-10.7-5.6-10.7-12.7c0-8.2,5.1-14,11.9-14
		c3.2,0,5.6,1.1,7.1,3.2v-12.8c-0.9-0.1-1.7-0.1-2.4-0.1c-1.1,0-2,0.1-2.9,0.2c-0.1-0.2-0.2-0.5-0.2-0.9c0-1.4,2.6-2.4,7.3-2.4
		c2.7,0,3.3,1.1,3.3,2.6v31.3c0,1.7,0.7,2.7,2.1,2.7c1.1,0,2.2-0.9,2.8-2.5c0.7,0,1,0.7,1,1.1c0,1.7-2,4-5.5,4
		c-3.4,0-5.1-2.2-5.1-5.2V170.7z M103.4,159.1c0-4.4-3.3-6.8-6.3-6.8c-4.8,0-7.1,3.9-7.1,11.2c0,5.2,1.5,9.9,6.7,9.9
		c3.4,0,6.7-2.9,6.7-7.7V159.1z"/>
	<path fill="#3C3C3B" d="M120.7,153.4c-0.6-0.1-1.1-0.1-1.6-0.1c-1,0-1.8,0.1-2.6,0.2c-0.1-0.2-0.2-0.5-0.2-0.8
		c0-1.4,2.3-2.3,6.6-2.3c2.5,0,3,1.1,3,2.5v20.1h4.5c0.1,0.2,0.2,0.4,0.2,0.6c0,1.3-2.4,1.7-7.2,1.7h-7c-0.1-0.2-0.2-0.4-0.2-0.6
		c0-1,1.5-1.5,4.6-1.7V153.4z M120.3,141.9c0-1.9,1.4-3.2,3.1-3.2c1.8,0,3,1.3,3,3.2c0,1.6-1.3,3-3.1,3
		C121.4,144.9,120.3,143.5,120.3,141.9z"/>
	<path fill="#3C3C3B" d="M137.8,153.5c-0.7-0.1-1.5-0.1-2.2-0.1c-1,0-1.8,0.1-2.6,0.2c-0.1-0.2-0.2-0.5-0.2-0.8
		c0-1.4,2.3-2.3,6.6-2.3c2.5,0,3,1.1,3,2.5v3c1.5-3.6,4.8-6.3,9.3-6.3c6.1,0,9.1,3.1,9.1,9.5v14h4.6c0.1,0.2,0.2,0.4,0.2,0.6
		c0,1.3-2.4,1.7-7.2,1.7h-7c-0.1-0.2-0.2-0.4-0.2-0.6c0-1,1.5-1.5,4.4-1.7v-13.6c0-5.1-1.8-7-5.5-7s-7.1,3.5-7.1,7.9v12.6h4.4
		c0.1,0.2,0.2,0.4,0.2,0.6c0,1.3-2.4,1.7-7.2,1.7h-7c-0.1-0.2-0.2-0.4-0.2-0.6c0-1,1.5-1.5,4.6-1.7V153.5z"/>
	<path fill="#3C3C3B" d="M178.7,167c-2.2,0-4,1.1-4,2.8c0,1.9,2.4,2.4,7.5,2.4c8.2,0,11.7,2.6,11.7,7.5c0,5.2-5.5,8.9-14.8,8.9
		c-7.8,0-11.3-2.7-11.4-6.4c-0.1-3.4,2.7-5.6,7.5-6.2c-3.1-0.6-5-2-5-4.6c0-2.7,2.5-4.4,5.2-5c-3.9-1.2-6.2-3.9-6.2-7.6
		c0-5,5-9.1,11.3-9.1c4,0,6.8,1,8.4,2.6c-0.2-0.6-0.2-1.1-0.2-1.7c0-2.4,1.7-4.3,4.4-4.3c2.5,0,3.7,1.5,3.7,3.2
		c0,1.4-1.1,2.6-2.3,2.6c-0.3,0-0.6-0.1-0.7-0.1c0.1-0.2,0.1-0.4,0.1-0.5c0-0.9-0.5-1.6-1.5-1.6c-1.2,0-1.9,0.8-1.9,2.9
		c0,0.7,0.1,1.5,0.2,2.5c0.3,0.7,0.4,1.8,0.4,2.8c0,4.8-4.5,9-11.3,9H178.7z M177.9,176.2c-3.5,0.9-5.4,2.6-5.4,5.2
		c0,3,2.9,4.8,7.9,4.8c5.4,0,8.9-1.9,8.9-5.3c0-2.8-2.2-4.7-9.8-4.7H177.9z M185.6,158.3c0-4.2-2.1-6.7-5.5-6.7
		c-3.2,0-5.5,2.5-5.5,6.7c0,4.1,1.9,6.6,5.4,6.6C183.2,165,185.6,162.5,185.6,158.3z"/>
</g>
</svg>
