<?xml version="1.0" encoding="utf-8"?>
<!-- Generator: Adobe Illustrator 18.0.0, SVG Export Plug-In . SVG Version: 6.00 Build 0)  -->
<!DOCTYPE svg PUBLIC "-//W3C//DTD SVG 1.1//EN" "http://www.w3.org/Graphics/SVG/1.1/DTD/svg11.dtd">
<svg version="1.1" id="Layer_1" xmlns="http://www.w3.org/2000/svg" xmlns:xlink="http://www.w3.org/1999/xlink" x="0px" y="0px"
	 viewBox="0 0 174.8 8.1" enable-background="new 0 0 174.8 8.1" xml:space="preserve">
<g>
	<path fill="#9D9D9C" d="M0,0.2h4.9v0.8h-4v2.9h3.5v0.8H0.9V8H0V0.2z"/>
	<path fill="#9D9D9C" d="M7.7,7.2h1.9V0.9H7.7V0.2h4.7v0.8h-1.9v6.3h1.9V8H7.7V7.2z"/>
	<path fill="#9D9D9C" d="M18.3,4.8L20.9,8h-1.1l-2.4-3.1h-1.1V8h-0.9V0.2h1.8c2,0,3.2,0.8,3.2,2.3C20.4,3.8,19.5,4.5,18.3,4.8z
		 M16.3,4.1h0.9c1.7,0,2.3-0.7,2.3-1.6c0-0.9-0.6-1.6-2.3-1.6h-0.9V4.1z"/>
	<path fill="#9D9D9C" d="M22.6,5.8h0.9c0.1,1,0.7,1.5,1.9,1.5c1.1,0,1.9-0.5,1.9-1.4c0-0.6-0.4-1-1.2-1.3l-1.7-0.6
		c-1-0.4-1.7-1-1.7-2c0-1.4,1.1-2.1,2.6-2.1C26.9,0,28,0.7,28,2.3h-0.9c0-1.3-1-1.5-1.7-1.5c-1.1,0-1.7,0.5-1.7,1.2
		c0,0.6,0.4,1,1.1,1.2l1.7,0.6c1.2,0.4,1.8,1,1.8,2c0,1.6-1.3,2.2-2.8,2.2C23.8,8.1,22.6,7.3,22.6,5.8z"/>
	<path fill="#9D9D9C" d="M32.7,0.9H30V0.2h6.2v0.8h-2.7v7h-0.9V0.9z"/>
	<path fill="#9D9D9C" d="M46.2,0.2h2.1c2,0,3.2,0.8,3.2,2.4c0,1.6-1.2,2.4-3.2,2.4h-1.2V8h-0.9V0.2z M47.1,4.1h1.2
		c1.7,0,2.3-0.7,2.3-1.6c0-0.9-0.6-1.6-2.3-1.6h-1.2V4.1z"/>
	<path fill="#9D9D9C" d="M56.8,4.8L59.4,8h-1.1l-2.4-3.1h-1.1V8h-0.9V0.2h1.8c2,0,3.2,0.8,3.2,2.3C58.9,3.8,58,4.5,56.8,4.8z
		 M54.8,4.1h0.9c1.7,0,2.3-0.7,2.3-1.6c0-0.9-0.6-1.6-2.3-1.6h-0.9V4.1z"/>
	<path fill="#9D9D9C" d="M61,4.1c0-2.5,1-4.1,3-4.1c2,0,2.9,1.7,2.9,4c0,2.5-1,4.1-3,4.1C61.9,8.1,61,6.5,61,4.1z M66,4.1
		c0-1.6-0.4-3.3-2-3.3c-1.6,0-2,1.6-2,3.3c0,1.6,0.4,3.3,2,3.3C65.6,7.3,66,5.7,66,4.1z"/>
	<path fill="#9D9D9C" d="M71.2,0.9h-2.7V0.2h6.2v0.8h-2.7v7h-0.9V0.9z"/>
	<path fill="#9D9D9C" d="M76.4,4.1c0-2.5,1-4.1,3-4.1c2,0,2.9,1.7,2.9,4c0,2.5-1,4.1-3,4.1C77.3,8.1,76.4,6.5,76.4,4.1z M81.4,4.1
		c0-1.6-0.4-3.3-2-3.3c-1.6,0-2,1.6-2,3.3c0,1.6,0.4,3.3,2,3.3C81,7.3,81.4,5.7,81.4,4.1z"/>
	<path fill="#9D9D9C" d="M86.6,0.9h-2.7V0.2h6.2v0.8h-2.7v7h-0.9V0.9z"/>
	<path fill="#9D9D9C" d="M94.3,4.8l-3.1-4.7h1l1.3,1.9l1.3,2l1.3-2l1.2-1.9h1l-3.1,4.7V8h-0.9V4.8z"/>
	<path fill="#9D9D9C" d="M100.1,0.2h2.1c2,0,3.2,0.8,3.2,2.4c0,1.6-1.2,2.4-3.2,2.4H101V8h-0.9V0.2z M101,4.1h1.2
		c1.7,0,2.3-0.7,2.3-1.6c0-0.9-0.6-1.6-2.3-1.6H101V4.1z"/>
	<path fill="#9D9D9C" d="M107.8,0.2h4.8v0.8h-3.9v2.7h3.5v0.8h-3.5v2.8h3.9V8h-4.8V0.2z"/>
	<path fill="#9D9D9C" d="M122.6,4.1c0-2.5,1-4.1,3-4.1c2,0,2.9,1.7,2.9,4c0,2.5-1,4.1-3,4.1C123.5,8.1,122.6,6.5,122.6,4.1z
		 M127.6,4.1c0-1.6-0.4-3.3-2-3.3c-1.6,0-2,1.6-2,3.3c0,1.6,0.4,3.3,2,3.3C127.2,7.3,127.6,5.7,127.6,4.1z"/>
	<path fill="#9D9D9C" d="M130.9,0.2h4.9v0.8h-4v2.9h3.5v0.8h-3.5V8h-0.9V0.2z"/>
	<path fill="#9D9D9C" d="M146.3,0.2h0.9v3.4h2.9V0.2h0.9V8h-0.9V4.4h-2.9V8h-0.9V0.2z"/>
	<path fill="#9D9D9C" d="M154,0.2h2.1c2.5,0,3.2,1.8,3.2,3.9c0,2.2-0.7,3.9-3.2,3.9H154V0.2z M154.9,7.2h1.2c2.1,0,2.3-1.8,2.3-3.1
		c0-1.4-0.2-3.1-2.3-3.1h-1.2V7.2z"/>
	<path fill="#9D9D9C" d="M163.5,0.2h1l2.8,7.8h-1L165.6,6h-3.3L161.7,8h-1L163.5,0.2z M162.6,5.3h2.8L164,1.2L162.6,5.3z"/>
	<path fill="#9D9D9C" d="M171.3,0.9h-2.7V0.2h6.2v0.8h-2.7v7h-0.9V0.9z"/>
</g>
</svg>
